<svg width="25" height="19" viewBox="0 0 25 19" fill="none" xmlns="http://www.w3.org/2000/svg">
<path d="M24.8921 4.46429C24.8921 3.42857 24.533 2.55357 23.8146 1.83929C23.0962 1.125 22.2341 0.76786 21.2284 0.76786H3.77146C2.76571 0.76786 1.90364 1.125 1.18525 1.83929C0.466861 2.55357 0.107666 3.42857 0.107666 4.46429V14.375C0.107666 15.4107 0.466861 16.2857 1.18525 17C1.90364 17.7143 2.76571 18.0714 3.77146 18.0714H21.2284C22.2341 18.0714 23.0962 17.7143 23.8146 17C24.533 16.2857 24.8921 15.4107 24.8921 14.375V4.46429ZM10.0215 13.625V4.30357L17.1335 8.96429L10.0215 13.625Z" fill="white"/>
</svg>
